<svg id="vector" xmlns="http://www.w3.org/2000/svg" width="256" height="256" viewBox="0 0 256 256"><path fill="#000000" d="M126.82,199.84L20.34,199.84C9.9,199.84 1.41,191.35 1.41,180.92L1.41,74.83c0,-10.44 8.49,-18.93 18.93,-18.93l131.13,0c3.1,0 5.62,2.52 5.62,5.62s-2.52,5.62 -5.62,5.62L20.34,67.14C16.1,67.14 12.65,70.59 12.65,74.83l0,106.09c0,4.24 3.45,7.69 7.69,7.69L126.82,188.6c3.1,0 5.62,2.52 5.62,5.62S129.92,199.84 126.82,199.84z" stroke-linejoin="miter" stroke-linecap="butt" stroke="#000000" stroke-opacity="0" stroke-width="2.81" fill-rule="nonzero" id="path_0"/><path fill="#000000" d="M151.47,199.84L126.82,199.84c-3.1,0 -5.62,-2.52 -5.62,-5.62s2.52,-5.62 5.62,-5.62l24.65,0c3.1,0 5.62,2.52 5.62,5.62S154.57,199.84 151.47,199.84z" stroke-linejoin="miter" stroke-linecap="butt" stroke="#000000" stroke-opacity="0" stroke-width="2.81" fill-rule="nonzero" id="path_1"/><path fill="#000000" d="M133.34,221.54L75.27,221.54c-3.1,0 -5.62,-2.52 -5.62,-5.62s2.52,-5.62 5.62,-5.62l58.07,0c3.1,0 5.62,2.52 5.62,5.62S136.45,221.54 133.34,221.54z" stroke-linejoin="miter" stroke-linecap="butt" stroke="#000000" stroke-opacity="0" stroke-width="2.81" fill-rule="nonzero" id="path_2"/><path fill="#000000" d="M234.79,221.54l-48.64,0c-10.76,0 -19.52,-8.76 -19.52,-19.52L166.63,53.69c0,-10.76 8.76,-19.52 19.52,-19.52l48.64,0c10.76,0 19.52,8.76 19.52,19.52l0,148.33C254.31,212.78 245.55,221.54 234.79,221.54zM186.15,45.41c-4.57,0 -8.28,3.71 -8.28,8.28l0,148.33c0,4.57 3.71,8.28 8.28,8.28l48.64,0c4.57,0 8.28,-3.71 8.28,-8.28L243.07,53.69c0,-4.57 -3.71,-8.28 -8.28,-8.28L186.15,45.41z" stroke-linejoin="miter" stroke-linecap="butt" stroke="#000000" stroke-opacity="0" stroke-width="2.81" fill-rule="nonzero" id="path_3"/><path fill="#000000" d="M104.31,221.54c-3.1,0 -5.62,-2.52 -5.62,-5.62l0,-21.7c0,-3.1 2.52,-5.62 5.62,-5.62s5.62,2.52 5.62,5.62l0,21.7C109.93,219.02 107.41,221.54 104.31,221.54z" stroke-linejoin="miter" stroke-linecap="butt" stroke="#000000" stroke-opacity="0" stroke-width="2.81" fill-rule="nonzero" id="path_4"/><path fill="#000000" d="M248.69,93.04L172.25,93.04c-3.1,0 -5.62,-2.52 -5.62,-5.62s2.52,-5.62 5.62,-5.62L248.69,81.8c3.1,0 5.62,2.52 5.62,5.62S251.79,93.04 248.69,93.04z" stroke-linejoin="miter" stroke-linecap="butt" stroke="#000000" stroke-opacity="0" stroke-width="2.81" fill-rule="nonzero" id="path_5"/><path fill="#000000" d="M248.69,68.63L172.25,68.63c-3.1,0 -5.62,-2.52 -5.62,-5.62s2.52,-5.62 5.62,-5.62L248.69,57.39c3.1,0 5.62,2.52 5.62,5.62S251.79,68.63 248.69,68.63z" stroke-linejoin="miter" stroke-linecap="butt" stroke="#000000" stroke-opacity="0" stroke-width="2.81" fill-rule="nonzero" id="path_6"/><path fill="#000000" d="M234.49,114.96l-11.58,0c-3.1,0 -5.62,-2.52 -5.62,-5.62s2.52,-5.62 5.62,-5.62l11.58,0c3.1,0 5.62,2.52 5.62,5.62S237.59,114.96 234.49,114.96z" stroke-linejoin="miter" stroke-linecap="butt" stroke="#000000" stroke-opacity="0" stroke-width="2.81" fill-rule="nonzero" id="path_7"/><path fill="#000000" d="M1135.13,1383.69l12.23,0l0,2.46l-9.3,0l0,7.55l8.6,0l0,2.43l-8.6,0L1138.06,1406.41l-2.93,0L1135.13,1383.69z" stroke-linejoin="miter" stroke-linecap="butt" stroke="#000000" stroke-opacity="0" stroke-width="2.81" fill-rule="nonzero" id="path_8"/><path fill="#000000" d="M1150.58,1395.18c0,-1.92 -0.04,-3.57 -0.14,-5.09l2.6,0l0.1,3.2l0.13,0c0.74,-2.19 2.53,-3.57 4.52,-3.57c0.33,0 0.57,0.03 0.84,0.1l0,2.8c-0.3,-0.07 -0.61,-0.1 -1.01,-0.1c-2.09,0 -3.57,1.58 -3.98,3.81c-0.07,0.41 -0.13,0.88 -0.13,1.38L1153.51,1406.41l-2.93,0L1150.58,1395.18z" stroke-linejoin="miter" stroke-linecap="butt" stroke="#000000" stroke-opacity="0" stroke-width="2.81" fill-rule="nonzero" id="path_9"/><path fill="#000000" d="M1162.91,1398.79c0.07,4.01 2.63,5.66 5.59,5.66c2.12,0 3.41,-0.37 4.51,-0.85l0.51,2.12c-1.05,0.47 -2.83,1.01 -5.43,1.01c-5.02,0 -8.02,-3.3 -8.02,-8.22s2.9,-8.8 7.65,-8.8c5.33,0 6.74,4.68 6.74,7.68c0,0.61 -0.07,1.08 -0.1,1.38L1162.91,1398.79zM1171.61,1396.66c0.03,-1.89 -0.78,-4.82 -4.11,-4.82c-3,0 -4.31,2.77 -4.55,4.82L1171.61,1396.66z" stroke-linejoin="miter" stroke-linecap="butt" stroke="#000000" stroke-opacity="0" stroke-width="2.81" fill-rule="nonzero" id="path_10"/><path fill="#000000" d="M1179.81,1398.79c0.07,4.01 2.63,5.66 5.59,5.66c2.12,0 3.4,-0.37 4.51,-0.85l0.51,2.12c-1.05,0.47 -2.83,1.01 -5.43,1.01c-5.02,0 -8.02,-3.3 -8.02,-8.22s2.9,-8.8 7.65,-8.8c5.33,0 6.74,4.68 6.74,7.68c0,0.61 -0.07,1.08 -0.1,1.38L1179.81,1398.79zM1188.51,1396.66c0.03,-1.89 -0.78,-4.82 -4.11,-4.82c-3,0 -4.31,2.77 -4.55,4.82L1188.51,1396.66z" stroke-linejoin="miter" stroke-linecap="butt" stroke="#000000" stroke-opacity="0" stroke-width="2.81" fill-rule="nonzero" id="path_11"/><path fill="#000000" d="M1205.23,1383.69L1205.23,1406.41l-2.93,0l0,-22.72L1205.23,1383.69z" stroke-linejoin="miter" stroke-linecap="butt" stroke="#000000" stroke-opacity="0" stroke-width="2.81" fill-rule="nonzero" id="path_12"/><path fill="#000000" d="M1221.89,1405.8c-0.77,0.4 -2.5,0.94 -4.68,0.94c-4.92,0 -8.12,-3.34 -8.12,-8.32c0,-5.02 3.44,-8.66 8.76,-8.66c1.75,0 3.3,0.44 4.11,0.84l-0.67,2.29c-0.71,-0.4 -1.82,-0.77 -3.44,-0.77c-3.74,0 -5.76,2.76 -5.76,6.17c0,3.78 2.43,6.1 5.66,6.1c1.69,0 2.8,-0.44 3.64,-0.81L1221.89,1405.8z" stroke-linejoin="miter" stroke-linecap="butt" stroke="#000000" stroke-opacity="0" stroke-width="2.81" fill-rule="nonzero" id="path_13"/><path fill="#000000" d="M1239.92,1398.12c0,6.03 -4.18,8.66 -8.12,8.66c-4.42,0 -7.82,-3.23 -7.82,-8.39c0,-5.46 3.57,-8.66 8.09,-8.66C1236.76,1389.72 1239.92,1393.13 1239.92,1398.12zM1226.98,1398.28c0,3.57 2.05,6.27 4.95,6.27c2.83,0 4.96,-2.66 4.96,-6.33c0,-2.77 -1.38,-6.27 -4.89,-6.27S1226.98,1395.18 1226.98,1398.28z" stroke-linejoin="miter" stroke-linecap="butt" stroke="#000000" stroke-opacity="0" stroke-width="2.81" fill-rule="nonzero" id="path_14"/><path fill="#000000" d="M1243.67,1394.51c0,-1.69 -0.03,-3.07 -0.13,-4.41l2.63,0l0.17,2.69l0.07,0c0.81,-1.55 2.69,-3.07 5.39,-3.07c2.26,0 5.76,1.35 5.76,6.94L1257.56,1406.41l-2.96,0l0,-9.4c0,-2.63 -0.98,-4.82 -3.78,-4.82c-1.95,0 -3.47,1.38 -3.98,3.03c-0.13,0.37 -0.2,0.88 -0.2,1.38L1246.64,1406.41l-2.97,0L1243.67,1394.51z" stroke-linejoin="miter" stroke-linecap="butt" stroke="#000000" stroke-opacity="0" stroke-width="2.81" fill-rule="nonzero" id="path_15"/><path fill="#000000" d="M1261.98,1403.37c0.88,0.58 2.43,1.18 3.91,1.18c2.16,0 3.17,-1.08 3.17,-2.43c0,-1.42 -0.85,-2.19 -3.03,-3c-2.93,-1.05 -4.31,-2.66 -4.31,-4.62c0,-2.63 2.12,-4.78 5.63,-4.78c1.65,0 3.1,0.47 4.01,1.01l-0.74,2.16c-0.64,-0.4 -1.82,-0.94 -3.34,-0.94c-1.75,0 -2.73,1.01 -2.73,2.22c0,1.35 0.98,1.95 3.1,2.76c2.83,1.08 4.28,2.5 4.28,4.92c0,2.87 -2.23,4.89 -6.1,4.89c-1.78,0 -3.44,-0.44 -4.58,-1.11L1261.98,1403.37z" stroke-linejoin="miter" stroke-linecap="butt" stroke="#000000" stroke-opacity="0" stroke-width="2.81" fill-rule="nonzero" id="path_16"/><path fill="#000000" d="M1282.99,1383.69l12.23,0l0,2.46l-9.3,0l0,7.55l8.6,0l0,2.43l-8.6,0L1285.92,1406.41l-2.93,0L1282.99,1383.69z" stroke-linejoin="miter" stroke-linecap="butt" stroke="#000000" stroke-opacity="0" stroke-width="2.81" fill-rule="nonzero" id="path_17"/><path fill="#000000" d="M1313.03,1398.12c0,6.03 -4.18,8.66 -8.12,8.66c-4.41,0 -7.82,-3.23 -7.82,-8.39c0,-5.46 3.57,-8.66 8.09,-8.66C1309.86,1389.72 1313.03,1393.13 1313.03,1398.12zM1300.09,1398.28c0,3.57 2.05,6.27 4.95,6.27c2.83,0 4.95,-2.66 4.95,-6.33c0,-2.77 -1.38,-6.27 -4.88,-6.27C1301.6,1391.95 1300.09,1395.18 1300.09,1398.28z" stroke-linejoin="miter" stroke-linecap="butt" stroke="#000000" stroke-opacity="0" stroke-width="2.81" fill-rule="nonzero" id="path_18"/><path fill="#000000" d="M1316.78,1395.18c0,-1.92 -0.03,-3.57 -0.13,-5.09l2.59,0l0.1,3.2l0.13,0c0.74,-2.19 2.53,-3.57 4.51,-3.57c0.34,0 0.58,0.03 0.85,0.1l0,2.8c-0.3,-0.07 -0.61,-0.1 -1.01,-0.1c-2.09,0 -3.57,1.58 -3.98,3.81c-0.06,0.41 -0.13,0.88 -0.13,1.38L1319.71,1406.41l-2.93,0L1316.78,1395.18z" stroke-linejoin="miter" stroke-linecap="butt" stroke="#000000" stroke-opacity="0" stroke-width="2.81" fill-rule="nonzero" id="path_19"/><path fill="#000000" d="M1335.05,1383.96c1.42,-0.24 3.27,-0.44 5.63,-0.44c2.9,0 5.02,0.67 6.37,1.89c1.25,1.08 1.99,2.73 1.99,4.75c0,2.06 -0.61,3.68 -1.75,4.86c-1.55,1.65 -4.08,2.5 -6.94,2.5c-0.88,0 -1.69,-0.03 -2.36,-0.2L1337.99,1406.41l-2.93,0L1335.05,1383.96zM1337.99,1394.91c0.64,0.17 1.45,0.24 2.43,0.24c3.54,0 5.69,-1.72 5.69,-4.85c0,-3 -2.12,-4.45 -5.36,-4.45c-1.28,0 -2.26,0.1 -2.76,0.24L1337.99,1394.91z" stroke-linejoin="miter" stroke-linecap="butt" stroke="#000000" stroke-opacity="0" stroke-width="2.81" fill-rule="nonzero" id="path_20"/><path fill="#000000" d="M1366.81,1398.12c0,6.03 -4.18,8.66 -8.12,8.66c-4.41,0 -7.82,-3.23 -7.82,-8.39c0,-5.46 3.57,-8.66 8.09,-8.66C1363.64,1389.72 1366.81,1393.13 1366.81,1398.12zM1353.87,1398.28c0,3.57 2.06,6.27 4.96,6.27c2.83,0 4.96,-2.66 4.96,-6.33c0,-2.77 -1.38,-6.27 -4.89,-6.27C1355.39,1391.95 1353.87,1395.18 1353.87,1398.28z" stroke-linejoin="miter" stroke-linecap="butt" stroke="#000000" stroke-opacity="0" stroke-width="2.81" fill-rule="nonzero" id="path_21"/><path fill="#000000" d="M1371.51,1390.09l2.16,8.29c0.47,1.82 0.91,3.5 1.21,5.19l0.1,0c0.37,-1.65 0.91,-3.4 1.45,-5.15l2.66,-8.33l2.5,0l2.52,8.15c0.61,1.95 1.08,3.67 1.45,5.32l0.1,0c0.27,-1.65 0.71,-3.37 1.24,-5.29l2.33,-8.19l2.93,0L1386.91,1406.41l-2.69,0l-2.5,-7.79c-0.57,-1.82 -1.04,-3.44 -1.45,-5.36l-0.06,0c-0.41,1.95 -0.91,3.64 -1.48,5.4L1376.09,1406.41l-2.7,0l-4.92,-16.31L1371.51,1390.09z" stroke-linejoin="miter" stroke-linecap="butt" stroke="#000000" stroke-opacity="0" stroke-width="2.81" fill-rule="nonzero" id="path_22"/><path fill="#000000" d="M1396.46,1398.79c0.07,4.01 2.63,5.66 5.59,5.66c2.12,0 3.4,-0.37 4.51,-0.85l0.51,2.12c-1.05,0.47 -2.83,1.01 -5.43,1.01c-5.02,0 -8.02,-3.3 -8.02,-8.22s2.9,-8.8 7.65,-8.8c5.32,0 6.74,4.68 6.74,7.68c0,0.61 -0.06,1.08 -0.1,1.38L1396.46,1398.79zM1405.16,1396.66c0.03,-1.89 -0.78,-4.82 -4.11,-4.82c-3,0 -4.31,2.77 -4.55,4.82L1405.16,1396.66z" stroke-linejoin="miter" stroke-linecap="butt" stroke="#000000" stroke-opacity="0" stroke-width="2.81" fill-rule="nonzero" id="path_23"/><path fill="#000000" d="M1411.7,1395.18c0,-1.92 -0.04,-3.57 -0.14,-5.09l2.6,0l0.1,3.2l0.13,0c0.74,-2.19 2.53,-3.57 4.52,-3.57c0.34,0 0.57,0.03 0.84,0.1l0,2.8c-0.3,-0.07 -0.61,-0.1 -1.01,-0.1c-2.09,0 -3.57,1.58 -3.98,3.81c-0.06,0.41 -0.13,0.88 -0.13,1.38L1414.63,1406.41l-2.93,0L1411.7,1395.18z" stroke-linejoin="miter" stroke-linecap="butt" stroke="#000000" stroke-opacity="0" stroke-width="2.81" fill-rule="nonzero" id="path_24"/><path fill="#000000" d="M1422.86,1395.42c0,-2.09 -0.07,-3.77 -0.14,-5.32l2.66,0l0.13,2.8l0.06,0c1.21,-1.99 3.13,-3.17 5.8,-3.17c3.94,0 6.91,3.34 6.91,8.29c0,5.86 -3.57,8.76 -7.42,8.76c-2.16,0 -4.04,-0.94 -5.02,-2.56l-0.07,0l0,8.86l-2.93,0L1422.86,1395.42zM1425.79,1399.77c0,0.44 0.07,0.85 0.13,1.21c0.54,2.06 2.33,3.47 4.45,3.47c3.13,0 4.96,-2.56 4.96,-6.3c0,-3.27 -1.72,-6.07 -4.86,-6.07c-2.02,0 -3.91,1.45 -4.48,3.68c-0.1,0.37 -0.2,0.81 -0.2,1.21L1425.79,1399.77z" stroke-linejoin="miter" stroke-linecap="butt" stroke="#000000" stroke-opacity="0" stroke-width="2.81" fill-rule="nonzero" id="path_25"/><path fill="#000000" d="M1456.81,1398.12c0,6.03 -4.18,8.66 -8.12,8.66c-4.41,0 -7.82,-3.23 -7.82,-8.39c0,-5.46 3.57,-8.66 8.09,-8.66C1453.64,1389.72 1456.81,1393.13 1456.81,1398.12zM1443.87,1398.28c0,3.57 2.05,6.27 4.95,6.27c2.83,0 4.95,-2.66 4.95,-6.33c0,-2.77 -1.38,-6.27 -4.88,-6.27C1445.38,1391.95 1443.87,1395.18 1443.87,1398.28z" stroke-linejoin="miter" stroke-linecap="butt" stroke="#000000" stroke-opacity="0" stroke-width="2.81" fill-rule="nonzero" id="path_26"/><path fill="#000000" d="M1463.86,1385.51c0.03,1.01 -0.71,1.82 -1.89,1.82c-1.04,0 -1.79,-0.81 -1.79,-1.82c0,-1.05 0.78,-1.85 1.85,-1.85C1463.15,1383.66 1463.86,1384.47 1463.86,1385.51zM1460.56,1406.41l0,-16.31l2.96,0L1463.53,1406.41L1460.56,1406.41z" stroke-linejoin="miter" stroke-linecap="butt" stroke="#000000" stroke-opacity="0" stroke-width="2.81" fill-rule="nonzero" id="path_27"/><path fill="#000000" d="M1468.45,1394.51c0,-1.69 -0.04,-3.07 -0.14,-4.41l2.63,0l0.17,2.69l0.06,0c0.81,-1.55 2.7,-3.07 5.39,-3.07c2.26,0 5.76,1.35 5.76,6.94L1482.34,1406.41l-2.96,0l0,-9.4c0,-2.63 -0.98,-4.82 -3.78,-4.82c-1.95,0 -3.47,1.38 -3.98,3.03c-0.13,0.37 -0.2,0.88 -0.2,1.38L1471.42,1406.41l-2.96,0L1468.45,1394.51z" stroke-linejoin="miter" stroke-linecap="butt" stroke="#000000" stroke-opacity="0" stroke-width="2.81" fill-rule="nonzero" id="path_28"/><path fill="#000000" d="M1490.6,1385.41l0,4.68l4.25,0l0,2.26l-4.25,0l0,8.8c0,2.02 0.57,3.17 2.23,3.17c0.77,0 1.35,-0.1 1.72,-0.2l0.13,2.23c-0.57,0.23 -1.48,0.4 -2.63,0.4c-1.38,0 -2.49,-0.44 -3.2,-1.25c-0.84,-0.88 -1.15,-2.32 -1.15,-4.25l0,-8.9l-2.53,0l0,-2.26l2.53,0l0,-3.91L1490.6,1385.41z" stroke-linejoin="miter" stroke-linecap="butt" stroke="#000000" stroke-opacity="0" stroke-width="2.81" fill-rule="nonzero" id="path_29"/><path fill="#000000" d="M1505.44,1383.96c1.42,-0.24 3.27,-0.44 5.63,-0.44c2.9,0 5.02,0.67 6.37,1.89c1.24,1.08 1.99,2.73 1.99,4.75c0,2.06 -0.61,3.68 -1.75,4.86c-1.55,1.65 -4.08,2.5 -6.94,2.5c-0.88,0 -1.69,-0.03 -2.36,-0.2L1508.37,1406.41l-2.93,0L1505.44,1383.96zM1508.37,1394.91c0.64,0.17 1.45,0.24 2.43,0.24c3.54,0 5.7,-1.72 5.7,-4.85c0,-3 -2.12,-4.45 -5.36,-4.45c-1.28,0 -2.26,0.1 -2.76,0.24L1508.37,1394.91z" stroke-linejoin="miter" stroke-linecap="butt" stroke="#000000" stroke-opacity="0" stroke-width="2.81" fill-rule="nonzero" id="path_30"/><path fill="#000000" d="M1522.74,1395.18c0,-1.92 -0.04,-3.57 -0.14,-5.09l2.6,0l0.1,3.2l0.13,0c0.74,-2.19 2.53,-3.57 4.52,-3.57c0.34,0 0.57,0.03 0.84,0.1l0,2.8c-0.3,-0.07 -0.61,-0.1 -1.01,-0.1c-2.09,0 -3.57,1.58 -3.98,3.81c-0.06,0.41 -0.13,0.88 -0.13,1.38L1525.67,1406.41l-2.93,0L1522.74,1395.18z" stroke-linejoin="miter" stroke-linecap="butt" stroke="#000000" stroke-opacity="0" stroke-width="2.81" fill-rule="nonzero" id="path_31"/><path fill="#000000" d="M1535.08,1398.79c0.07,4.01 2.63,5.66 5.59,5.66c2.12,0 3.4,-0.37 4.52,-0.85l0.51,2.12c-1.05,0.47 -2.83,1.01 -5.43,1.01c-5.02,0 -8.02,-3.3 -8.02,-8.22s2.9,-8.8 7.65,-8.8c5.32,0 6.74,4.68 6.74,7.68c0,0.61 -0.07,1.08 -0.1,1.38L1535.08,1398.79zM1543.78,1396.66c0.03,-1.89 -0.78,-4.82 -4.11,-4.82c-3,0 -4.31,2.77 -4.55,4.82L1543.78,1396.66z" stroke-linejoin="miter" stroke-linecap="butt" stroke="#000000" stroke-opacity="0" stroke-width="2.81" fill-rule="nonzero" id="path_32"/><path fill="#000000" d="M1549.92,1403.37c0.88,0.58 2.43,1.18 3.91,1.18c2.16,0 3.17,-1.08 3.17,-2.43c0,-1.42 -0.84,-2.19 -3.03,-3c-2.93,-1.05 -4.31,-2.66 -4.31,-4.62c0,-2.63 2.12,-4.78 5.63,-4.78c1.65,0 3.1,0.47 4.01,1.01l-0.74,2.16c-0.64,-0.4 -1.82,-0.94 -3.34,-0.94c-1.75,0 -2.73,1.01 -2.73,2.22c0,1.35 0.98,1.95 3.1,2.76c2.83,1.08 4.28,2.5 4.28,4.92c0,2.87 -2.22,4.89 -6.1,4.89c-1.79,0 -3.44,-0.44 -4.58,-1.11L1549.92,1403.37z" stroke-linejoin="miter" stroke-linecap="butt" stroke="#000000" stroke-opacity="0" stroke-width="2.81" fill-rule="nonzero" id="path_33"/><path fill="#000000" d="M1565.33,1398.79c0.07,4.01 2.63,5.66 5.59,5.66c2.12,0 3.4,-0.37 4.52,-0.85l0.51,2.12c-1.05,0.47 -2.83,1.01 -5.43,1.01c-5.02,0 -8.02,-3.3 -8.02,-8.22s2.9,-8.8 7.65,-8.8c5.32,0 6.74,4.68 6.74,7.68c0,0.61 -0.07,1.08 -0.1,1.38L1565.33,1398.79zM1574.02,1396.66c0.03,-1.89 -0.78,-4.82 -4.11,-4.82c-3,0 -4.31,2.77 -4.55,4.82L1574.02,1396.66z" stroke-linejoin="miter" stroke-linecap="butt" stroke="#000000" stroke-opacity="0" stroke-width="2.81" fill-rule="nonzero" id="path_34"/><path fill="#000000" d="M1580.57,1394.51c0,-1.69 -0.04,-3.07 -0.14,-4.41l2.63,0l0.17,2.69l0.06,0c0.81,-1.55 2.7,-3.07 5.39,-3.07c2.26,0 5.76,1.35 5.76,6.94L1594.45,1406.41l-2.96,0l0,-9.4c0,-2.63 -0.98,-4.82 -3.78,-4.82c-1.95,0 -3.47,1.38 -3.98,3.03c-0.13,0.37 -0.2,0.88 -0.2,1.38L1583.53,1406.41l-2.96,0L1580.57,1394.51z" stroke-linejoin="miter" stroke-linecap="butt" stroke="#000000" stroke-opacity="0" stroke-width="2.81" fill-rule="nonzero" id="path_35"/><path fill="#000000" d="M1602.72,1385.41l0,4.68l4.25,0l0,2.26l-4.25,0l0,8.8c0,2.02 0.57,3.17 2.23,3.17c0.77,0 1.35,-0.1 1.72,-0.2l0.13,2.23c-0.57,0.23 -1.48,0.4 -2.63,0.4c-1.38,0 -2.49,-0.44 -3.2,-1.25c-0.84,-0.88 -1.15,-2.32 -1.15,-4.25l0,-8.9l-2.53,0l0,-2.26l2.53,0l0,-3.91L1602.72,1385.41z" stroke-linejoin="miter" stroke-linecap="butt" stroke="#000000" stroke-opacity="0" stroke-width="2.81" fill-rule="nonzero" id="path_36"/><path fill="#000000" d="M1619.34,1406.41l-0.24,-2.05l-0.1,0c-0.91,1.28 -2.66,2.43 -4.99,2.43c-3.3,0 -4.98,-2.32 -4.98,-4.68c0,-3.94 3.5,-6.1 9.81,-6.06l0,-0.34c0,-1.35 -0.37,-3.77 -3.71,-3.77c-1.52,0 -3.1,0.47 -4.25,1.21l-0.67,-1.95c1.35,-0.88 3.3,-1.45 5.36,-1.45c4.99,0 6.2,3.4 6.2,6.67l0,6.1c0,1.41 0.07,2.79 0.27,3.91L1619.34,1406.41zM1618.9,1398.08c-3.23,-0.06 -6.91,0.51 -6.91,3.68c0,1.92 1.28,2.83 2.8,2.83c2.12,0 3.47,-1.35 3.94,-2.73c0.1,-0.3 0.17,-0.64 0.17,-0.94L1618.9,1398.08z" stroke-linejoin="miter" stroke-linecap="butt" stroke="#000000" stroke-opacity="0" stroke-width="2.81" fill-rule="nonzero" id="path_37"/><path fill="#000000" d="M1630,1385.41l0,4.68l4.25,0l0,2.26l-4.25,0l0,8.8c0,2.02 0.57,3.17 2.23,3.17c0.77,0 1.35,-0.1 1.72,-0.2l0.13,2.23c-0.57,0.23 -1.48,0.4 -2.63,0.4c-1.38,0 -2.49,-0.44 -3.2,-1.25c-0.84,-0.88 -1.15,-2.32 -1.15,-4.25l0,-8.9l-2.53,0l0,-2.26l2.53,0l0,-3.91L1630,1385.41z" stroke-linejoin="miter" stroke-linecap="butt" stroke="#000000" stroke-opacity="0" stroke-width="2.81" fill-rule="nonzero" id="path_38"/><path fill="#000000" d="M1640.89,1385.51c0.03,1.01 -0.71,1.82 -1.89,1.82c-1.04,0 -1.79,-0.81 -1.79,-1.82c0,-1.05 0.78,-1.85 1.85,-1.85C1640.18,1383.66 1640.89,1384.47 1640.89,1385.51zM1637.59,1406.41l0,-16.31l2.96,0L1640.55,1406.41L1637.59,1406.41z" stroke-linejoin="miter" stroke-linecap="butt" stroke="#000000" stroke-opacity="0" stroke-width="2.81" fill-rule="nonzero" id="path_39"/><path fill="#000000" d="M1660.24,1398.12c0,6.03 -4.18,8.66 -8.12,8.66c-4.41,0 -7.82,-3.23 -7.82,-8.39c0,-5.46 3.57,-8.66 8.09,-8.66C1657.07,1389.72 1660.24,1393.13 1660.24,1398.12zM1647.3,1398.28c0,3.57 2.05,6.27 4.95,6.27c2.83,0 4.95,-2.66 4.95,-6.33c0,-2.77 -1.38,-6.27 -4.88,-6.27C1648.81,1391.95 1647.3,1395.18 1647.3,1398.28z" stroke-linejoin="miter" stroke-linecap="butt" stroke="#000000" stroke-opacity="0" stroke-width="2.81" fill-rule="nonzero" id="path_40"/><path fill="#000000" d="M1663.99,1394.51c0,-1.69 -0.04,-3.07 -0.14,-4.41l2.63,0l0.17,2.69l0.06,0c0.81,-1.55 2.7,-3.07 5.39,-3.07c2.26,0 5.76,1.35 5.76,6.94L1677.88,1406.41l-2.96,0l0,-9.4c0,-2.63 -0.98,-4.82 -3.78,-4.82c-1.95,0 -3.47,1.38 -3.98,3.03c-0.13,0.37 -0.2,0.88 -0.2,1.38L1666.96,1406.41l-2.96,0L1663.99,1394.51z" stroke-linejoin="miter" stroke-linecap="butt" stroke="#000000" stroke-opacity="0" stroke-width="2.81" fill-rule="nonzero" id="path_41"/></svg>